<svg xmlns="http://www.w3.org/2000/svg" width="1672" height="941" viewBox="0 0 1672 941" role="img" aria-label="Logo Julho para Jesus IMX">
<rect width="100%" height="100%" fill="#000000"/>
<g fill="#F4F4F4" fill-rule="evenodd">
<path d="M 528 573 L 528 582 L 529 582 L 529 573 Z"/>
<path d="M 814 513 L 814 735 L 818 772 L 830 805 L 854 831 L 893 844 L 952 845 L 996 832 L 1021 806 L 1030 786 L 1036 758 L 1037 513 L 952 513 L 952 531 L 966 518 L 952 553 L 952 754 L 946 780 L 932 789 L 912 786 L 904 778 L 900 765 L 899 513 L 881 513 L 869 522 L 858 520 L 852 513 Z"/>
<path d="M 341 513 L 341 841 L 539 841 L 539 771 L 426 770 L 427 706 L 528 705 L 528 653 L 525 670 L 517 675 L 506 662 L 503 638 L 426 637 L 427 582 L 503 582 L 504 513 Z"/>
<path d="M 308 513 L 221 513 L 221 768 L 215 783 L 205 789 L 195 789 L 185 783 L 178 764 L 177 734 L 101 735 L 103 770 L 108 792 L 117 811 L 137 831 L 154 839 L 173 844 L 201 846 L 230 844 L 248 840 L 269 831 L 279 824 L 295 805 L 303 785 L 308 757 Z"/>
<path d="M 716 512 L 716 517 L 717 518 L 718 529 L 720 533 L 720 538 L 722 540 L 722 542 L 724 546 L 726 547 L 731 542 L 739 530 L 742 527 L 744 523 L 738 519 L 736 519 L 729 515 L 727 515 L 720 512 Z"/>
<path d="M 1141 509 L 1107 521 L 1089 536 L 1079 550 L 1067 590 L 1069 637 L 1077 658 L 1100 684 L 1127 700 L 1171 718 L 1193 734 L 1200 749 L 1199 770 L 1188 785 L 1167 789 L 1158 785 L 1148 773 L 1145 743 L 1063 743 L 1065 784 L 1074 807 L 1083 819 L 1111 837 L 1149 845 L 1214 842 L 1253 826 L 1276 801 L 1288 759 L 1286 719 L 1276 693 L 1254 668 L 1236 656 L 1183 634 L 1162 621 L 1150 604 L 1150 583 L 1159 569 L 1177 564 L 1187 567 L 1194 574 L 1199 587 L 1200 607 L 1279 607 L 1277 575 L 1270 552 L 1261 537 L 1233 516 L 1194 507 Z"/>
<path d="M 687 507 L 672 507 L 654 522 L 643 520 L 637 510 L 604 522 L 599 531 L 578 549 L 566 583 L 564 614 L 567 637 L 586 673 L 617 696 L 676 722 L 691 734 L 698 747 L 699 764 L 692 780 L 681 788 L 665 789 L 654 784 L 647 775 L 643 743 L 561 743 L 564 786 L 576 813 L 596 831 L 637 844 L 696 845 L 738 834 L 756 824 L 770 810 L 782 788 L 786 772 L 786 722 L 781 704 L 769 684 L 734 656 L 668 627 L 649 607 L 647 589 L 651 577 L 659 568 L 671 564 L 681 565 L 691 572 L 697 585 L 698 607 L 778 607 L 773 562 L 762 555 L 756 532 L 749 529 L 731 561 L 713 561 L 702 548 L 693 510 Z"/>
<path d="M 691 480 L 689 481 L 679 496 L 679 498 L 691 498 L 691 495 L 692 494 L 692 491 L 691 490 Z"/>
<path d="M 891 454 L 890 454 L 880 464 L 874 476 L 874 478 L 872 480 L 872 487 L 871 488 L 871 493 L 869 498 L 874 498 L 878 494 L 886 482 L 887 479 L 891 474 Z"/>
<path d="M 596 448 L 594 449 L 594 472 L 593 473 L 593 478 L 595 477 L 595 475 L 596 474 L 596 468 L 597 467 L 597 457 L 598 456 L 598 454 L 597 453 Z"/>
<path d="M 692 447 L 679 451 L 676 453 L 665 465 L 658 480 L 658 484 L 657 485 L 657 490 L 656 491 L 655 498 L 660 498 L 667 489 L 671 481 L 674 478 L 676 474 L 692 452 Z"/>
<path d="M 782 429 L 772 429 L 772 436 L 773 437 L 772 441 L 773 442 L 773 447 L 774 448 L 774 453 L 775 454 L 775 460 L 777 460 L 779 456 L 779 454 L 782 449 Z"/>
<path d="M 804 174 L 804 420 L 819 411 L 835 409 L 853 427 L 848 437 L 840 439 L 836 434 L 835 420 L 831 418 L 808 434 L 804 440 L 804 498 L 849 498 L 849 485 L 860 457 L 879 436 L 891 430 L 892 364 L 942 365 L 942 498 L 1027 498 L 1027 174 L 942 174 L 941 292 L 891 291 L 891 174 Z"/>
<path d="M 593 174 L 593 432 L 607 440 L 614 448 L 616 468 L 629 468 L 635 472 L 634 476 L 624 476 L 614 481 L 610 498 L 634 498 L 636 481 L 647 455 L 663 437 L 679 430 L 696 433 L 713 446 L 716 461 L 716 498 L 750 498 L 747 478 L 747 445 L 750 429 L 680 429 L 678 427 L 678 173 Z"/>
<path d="M 336 174 L 336 406 L 342 440 L 350 460 L 368 482 L 400 498 L 424 502 L 471 502 L 505 494 L 510 431 L 516 430 L 531 440 L 535 471 L 546 453 L 555 420 L 557 174 L 471 174 L 471 420 L 467 436 L 453 446 L 432 442 L 425 433 L 422 419 L 422 173 Z"/>
<path d="M 307 173 L 221 174 L 221 424 L 215 440 L 205 446 L 194 446 L 183 438 L 178 423 L 177 392 L 101 393 L 104 433 L 110 454 L 120 472 L 140 490 L 156 497 L 181 502 L 235 500 L 268 488 L 278 481 L 294 462 L 305 430 L 308 394 Z"/>
<path d="M 1141 169 L 1113 178 L 1096 189 L 1080 207 L 1067 235 L 1061 260 L 1056 307 L 1056 364 L 1063 421 L 1072 449 L 1079 462 L 1088 474 L 1103 487 L 1125 497 L 1144 501 L 1191 502 L 1211 499 L 1239 488 L 1254 476 L 1269 454 L 1278 431 L 1285 393 L 1288 348 L 1286 287 L 1280 247 L 1272 223 L 1261 203 L 1246 187 L 1234 179 L 1198 168 L 1158 167 Z M 1169 224 L 1176 224 L 1183 226 L 1192 235 L 1197 249 L 1198 262 L 1199 263 L 1199 273 L 1200 274 L 1201 366 L 1200 367 L 1199 410 L 1198 411 L 1197 423 L 1193 435 L 1187 442 L 1179 446 L 1166 446 L 1159 443 L 1153 437 L 1150 431 L 1147 419 L 1146 404 L 1145 403 L 1145 387 L 1144 386 L 1144 283 L 1145 282 L 1146 257 L 1149 243 L 1153 234 L 1160 227 Z"/>
<path d="M 1520 129 L 1518 131 L 1518 138 L 1519 139 L 1526 139 L 1527 138 L 1527 131 L 1524 129 Z"/>
<path d="M 1518 96 L 1518 111 L 1519 112 L 1519 120 L 1520 121 L 1520 125 L 1524 125 L 1524 123 L 1525 122 L 1525 117 L 1526 116 L 1526 110 L 1527 109 L 1527 96 Z"/>
<path d="M 1352 96 L 1352 102 L 1355 102 L 1357 104 L 1357 131 L 1356 132 L 1352 132 L 1352 139 L 1370 139 L 1370 132 L 1366 132 L 1365 131 L 1365 103 L 1366 102 L 1370 102 L 1370 96 Z"/>
<path d="M 991 96 L 991 102 L 995 102 L 996 103 L 996 131 L 995 132 L 991 132 L 991 139 L 1010 139 L 1010 133 L 1009 132 L 1005 132 L 1004 131 L 1004 104 L 1006 102 L 1010 102 L 1010 96 Z"/>
<path d="M 452 96 L 452 102 L 456 102 L 457 103 L 457 131 L 456 132 L 452 132 L 452 139 L 471 139 L 471 133 L 466 131 L 466 103 L 467 102 L 471 102 L 471 96 Z"/>
<path d="M 1489 95 L 1485 97 L 1480 103 L 1480 105 L 1478 109 L 1478 125 L 1479 126 L 1479 129 L 1483 136 L 1488 139 L 1497 140 L 1505 137 L 1508 134 L 1511 127 L 1512 112 L 1511 111 L 1511 107 L 1509 102 L 1507 99 L 1503 96 L 1501 96 L 1500 95 Z M 1492 102 L 1497 102 L 1499 103 L 1502 106 L 1502 109 L 1503 110 L 1503 124 L 1502 125 L 1502 128 L 1497 132 L 1492 132 L 1488 129 L 1487 124 L 1486 123 L 1486 112 L 1487 111 L 1487 107 L 1489 104 Z"/>
<path d="M 1462 95 L 1452 96 L 1451 97 L 1451 99 L 1449 103 L 1449 106 L 1448 107 L 1448 110 L 1445 117 L 1444 124 L 1441 131 L 1440 139 L 1447 139 L 1449 131 L 1451 128 L 1462 128 L 1464 130 L 1466 139 L 1474 139 L 1474 135 L 1472 131 L 1472 128 L 1470 124 L 1469 117 L 1467 113 L 1467 110 L 1464 103 L 1464 99 Z M 1456 107 L 1459 109 L 1459 112 L 1461 117 L 1461 120 L 1460 121 L 1453 121 L 1452 120 L 1454 115 L 1455 108 Z"/>
<path d="M 1418 95 L 1413 97 L 1409 101 L 1408 111 L 1410 116 L 1412 118 L 1426 122 L 1428 124 L 1428 129 L 1425 132 L 1418 132 L 1413 128 L 1411 128 L 1407 132 L 1407 133 L 1412 138 L 1418 139 L 1419 140 L 1424 140 L 1425 139 L 1428 139 L 1434 135 L 1437 128 L 1437 123 L 1435 118 L 1432 115 L 1430 115 L 1427 113 L 1422 113 L 1421 112 L 1419 112 L 1417 110 L 1416 107 L 1420 102 L 1425 102 L 1430 105 L 1432 105 L 1436 101 L 1436 100 L 1428 95 Z"/>
<path d="M 1384 95 L 1380 97 L 1377 100 L 1375 105 L 1375 111 L 1377 116 L 1379 118 L 1393 122 L 1395 124 L 1395 129 L 1392 132 L 1385 132 L 1380 128 L 1378 128 L 1374 132 L 1374 133 L 1379 138 L 1386 139 L 1387 140 L 1391 140 L 1392 139 L 1395 139 L 1401 135 L 1404 127 L 1403 125 L 1403 120 L 1402 118 L 1397 114 L 1386 112 L 1384 110 L 1383 106 L 1384 104 L 1387 102 L 1393 102 L 1395 104 L 1398 105 L 1402 101 L 1402 100 L 1399 97 L 1394 95 Z"/>
<path d="M 1309 95 L 1309 108 L 1308 109 L 1309 111 L 1309 139 L 1316 139 L 1316 113 L 1317 112 L 1319 113 L 1320 117 L 1322 120 L 1322 122 L 1326 130 L 1327 130 L 1333 119 L 1333 117 L 1336 111 L 1338 112 L 1338 139 L 1345 139 L 1345 95 L 1336 96 L 1332 104 L 1332 106 L 1329 111 L 1329 113 L 1327 115 L 1325 114 L 1325 112 L 1322 107 L 1322 105 L 1320 102 L 1320 100 L 1317 95 Z"/>
<path d="M 1269 96 L 1268 101 L 1265 108 L 1264 115 L 1262 119 L 1262 122 L 1259 129 L 1257 139 L 1265 139 L 1265 136 L 1268 128 L 1280 128 L 1282 131 L 1284 139 L 1292 139 L 1280 96 L 1278 96 L 1277 95 Z M 1274 106 L 1276 107 L 1276 111 L 1279 119 L 1278 121 L 1271 121 L 1270 120 L 1271 114 L 1272 113 L 1272 109 Z"/>
<path d="M 1220 96 L 1219 102 L 1216 110 L 1216 113 L 1212 124 L 1211 131 L 1208 139 L 1216 139 L 1217 138 L 1218 131 L 1220 128 L 1232 128 L 1233 129 L 1235 139 L 1243 139 L 1242 132 L 1240 128 L 1240 125 L 1239 124 L 1237 113 L 1234 106 L 1234 103 L 1232 99 L 1232 96 L 1231 95 Z M 1225 106 L 1227 107 L 1227 109 L 1228 110 L 1228 113 L 1230 118 L 1230 120 L 1229 121 L 1223 121 L 1222 120 L 1222 116 L 1223 115 L 1224 107 Z"/>
<path d="M 1199 96 L 1197 96 L 1196 95 L 1191 95 L 1190 96 L 1175 96 L 1175 139 L 1183 139 L 1183 123 L 1184 122 L 1189 122 L 1190 123 L 1196 139 L 1205 139 L 1204 135 L 1201 130 L 1201 128 L 1198 123 L 1198 122 L 1203 118 L 1205 114 L 1205 104 L 1204 103 L 1204 101 Z M 1183 104 L 1184 103 L 1194 103 L 1196 105 L 1196 107 L 1197 108 L 1196 113 L 1192 116 L 1184 116 L 1183 115 Z"/>
<path d="M 1148 95 L 1144 105 L 1144 108 L 1142 112 L 1141 119 L 1139 123 L 1139 126 L 1137 130 L 1137 133 L 1136 134 L 1135 139 L 1143 139 L 1144 132 L 1146 128 L 1158 128 L 1160 130 L 1160 133 L 1161 134 L 1162 139 L 1170 139 L 1169 134 L 1168 133 L 1168 130 L 1167 129 L 1167 126 L 1166 125 L 1166 123 L 1164 119 L 1164 116 L 1162 112 L 1162 109 L 1159 102 L 1158 96 L 1157 95 Z M 1152 105 L 1154 106 L 1154 110 L 1155 111 L 1155 114 L 1157 119 L 1156 121 L 1149 121 L 1148 120 L 1149 113 Z"/>
<path d="M 1126 96 L 1124 96 L 1123 95 L 1103 95 L 1102 96 L 1102 139 L 1110 139 L 1110 124 L 1113 122 L 1126 122 L 1129 120 L 1131 117 L 1131 115 L 1132 114 L 1132 104 L 1129 98 Z M 1112 102 L 1120 102 L 1123 105 L 1124 107 L 1124 112 L 1120 116 L 1112 116 L 1110 114 L 1110 104 Z"/>
<path d="M 1063 95 L 1062 96 L 1061 104 L 1058 111 L 1058 114 L 1055 121 L 1055 124 L 1053 128 L 1051 139 L 1059 139 L 1060 132 L 1062 128 L 1074 128 L 1076 132 L 1077 139 L 1085 139 L 1084 131 L 1082 127 L 1082 124 L 1080 120 L 1080 117 L 1079 116 L 1079 113 L 1077 109 L 1077 106 L 1076 105 L 1076 102 L 1075 101 L 1074 96 L 1073 95 Z M 1067 107 L 1069 107 L 1070 108 L 1070 112 L 1072 117 L 1072 120 L 1071 121 L 1065 121 L 1064 120 L 1064 116 L 1065 115 L 1065 112 Z"/>
<path d="M 1016 95 L 1016 139 L 1036 139 L 1040 137 L 1045 132 L 1047 127 L 1048 115 L 1047 114 L 1046 104 L 1041 98 L 1034 95 L 1029 95 L 1028 96 L 1019 96 L 1018 95 Z M 1025 103 L 1034 103 L 1037 106 L 1038 111 L 1039 112 L 1039 123 L 1038 124 L 1038 127 L 1035 131 L 1033 131 L 1032 132 L 1025 132 L 1024 131 L 1024 104 Z"/>
<path d="M 954 95 L 953 96 L 953 139 L 961 139 L 961 113 L 962 112 L 964 113 L 966 120 L 976 139 L 985 139 L 985 96 L 977 96 L 977 120 L 975 121 L 963 96 L 962 95 Z"/>
<path d="M 916 95 L 915 96 L 915 98 L 916 99 L 916 106 L 915 107 L 916 123 L 915 125 L 916 126 L 916 130 L 918 135 L 921 138 L 927 139 L 928 140 L 932 140 L 933 139 L 938 139 L 940 138 L 943 135 L 945 131 L 945 127 L 946 126 L 946 96 L 938 96 L 938 125 L 935 131 L 933 132 L 928 132 L 925 130 L 924 125 L 923 124 L 923 106 L 924 105 L 923 103 L 923 95 Z"/>
<path d="M 908 95 L 883 96 L 883 139 L 909 139 L 909 132 L 892 132 L 891 131 L 891 122 L 892 121 L 906 121 L 907 120 L 907 114 L 906 113 L 892 113 L 891 112 L 891 104 L 892 103 L 908 103 L 909 102 L 909 96 Z"/>
<path d="M 846 95 L 846 139 L 854 139 L 854 124 L 856 122 L 860 122 L 863 127 L 863 129 L 866 134 L 866 136 L 868 139 L 876 139 L 876 136 L 870 124 L 870 122 L 876 115 L 876 103 L 874 99 L 870 96 L 868 96 L 867 95 Z M 854 104 L 855 103 L 866 103 L 868 106 L 868 112 L 867 114 L 864 116 L 856 116 L 854 114 Z"/>
<path d="M 807 95 L 805 100 L 803 111 L 802 112 L 802 114 L 800 118 L 800 121 L 798 125 L 798 128 L 795 135 L 795 139 L 803 139 L 804 132 L 806 128 L 818 128 L 820 132 L 821 139 L 830 139 L 829 134 L 826 127 L 824 116 L 821 109 L 821 106 L 820 105 L 820 102 L 819 101 L 818 96 L 817 95 Z M 811 108 L 813 108 L 814 109 L 814 112 L 816 117 L 816 120 L 815 121 L 809 121 L 808 120 L 808 117 L 809 116 L 809 113 Z"/>
<path d="M 764 95 L 764 99 L 763 100 L 763 102 L 764 103 L 773 103 L 774 104 L 774 139 L 782 139 L 782 104 L 783 103 L 788 103 L 789 102 L 792 103 L 793 102 L 793 96 L 792 95 Z"/>
<path d="M 741 95 L 737 97 L 733 101 L 733 104 L 732 105 L 732 112 L 733 113 L 733 115 L 736 118 L 740 120 L 750 122 L 752 124 L 752 129 L 749 132 L 742 132 L 737 128 L 735 128 L 731 132 L 731 133 L 738 139 L 748 140 L 756 137 L 760 131 L 760 120 L 757 116 L 753 114 L 743 112 L 740 109 L 740 106 L 741 104 L 744 102 L 749 102 L 753 105 L 755 105 L 759 101 L 759 100 L 756 97 L 752 95 Z"/>
<path d="M 709 95 L 709 102 L 712 102 L 714 107 L 714 121 L 713 122 L 713 128 L 714 130 L 712 132 L 709 132 L 709 139 L 727 139 L 727 132 L 723 132 L 722 131 L 722 106 L 721 105 L 723 102 L 727 102 L 727 96 L 721 96 L 720 95 Z"/>
<path d="M 697 98 L 690 95 L 685 95 L 684 96 L 672 96 L 672 139 L 692 139 L 693 138 L 695 138 L 700 134 L 703 127 L 704 115 L 703 114 L 703 107 L 702 106 L 702 104 Z M 681 103 L 690 103 L 695 109 L 695 125 L 694 126 L 694 128 L 691 131 L 689 131 L 688 132 L 682 132 L 680 130 L 680 104 Z"/>
<path d="M 644 95 L 638 98 L 635 101 L 633 105 L 633 109 L 632 110 L 632 123 L 633 124 L 633 129 L 635 133 L 640 138 L 645 139 L 646 140 L 652 140 L 653 139 L 658 138 L 664 131 L 665 125 L 666 124 L 666 111 L 665 110 L 665 106 L 662 100 L 660 98 L 654 95 Z M 646 102 L 651 102 L 653 103 L 656 106 L 656 108 L 657 109 L 657 126 L 652 132 L 646 132 L 642 128 L 642 126 L 641 125 L 641 108 Z"/>
<path d="M 628 95 L 621 95 L 620 96 L 600 96 L 600 103 L 609 103 L 610 104 L 610 139 L 618 139 L 618 104 L 619 103 L 629 103 L 629 96 Z"/>
<path d="M 570 96 L 570 139 L 596 139 L 596 132 L 580 132 L 578 130 L 578 122 L 579 121 L 593 121 L 593 113 L 579 113 L 578 112 L 578 104 L 579 103 L 583 103 L 584 102 L 595 103 L 596 102 L 596 96 L 595 95 Z"/>
<path d="M 526 95 L 526 139 L 533 139 L 533 113 L 534 112 L 536 113 L 538 120 L 543 130 L 546 128 L 547 124 L 551 117 L 551 115 L 552 113 L 554 112 L 555 113 L 555 115 L 554 116 L 554 122 L 555 123 L 554 139 L 562 139 L 562 96 L 553 96 L 546 113 L 543 115 L 535 96 L 534 95 Z"/>
<path d="M 487 95 L 485 98 L 485 101 L 483 105 L 481 115 L 480 116 L 480 118 L 478 122 L 478 125 L 475 132 L 474 139 L 482 139 L 483 132 L 485 128 L 497 128 L 499 130 L 499 133 L 500 134 L 501 139 L 509 139 L 509 137 L 507 133 L 507 130 L 505 126 L 505 123 L 503 119 L 503 116 L 501 112 L 501 109 L 498 102 L 497 96 L 496 95 Z M 491 106 L 493 107 L 493 111 L 496 119 L 495 121 L 488 121 L 487 120 L 489 109 Z"/>
<path d="M 426 95 L 425 96 L 425 139 L 448 139 L 448 132 L 438 132 L 434 130 L 434 96 L 433 95 Z"/>
<path d="M 401 96 L 401 102 L 404 102 L 405 103 L 405 117 L 406 118 L 406 130 L 404 132 L 401 132 L 401 139 L 419 139 L 419 132 L 415 132 L 414 131 L 414 103 L 415 102 L 419 102 L 419 96 L 418 95 L 405 95 L 404 96 Z"/>
<path d="M 357 96 L 357 139 L 365 139 L 365 113 L 366 112 L 368 113 L 368 115 L 371 120 L 371 122 L 374 127 L 374 129 L 377 129 L 385 111 L 387 112 L 386 114 L 386 132 L 387 133 L 387 139 L 394 139 L 394 96 L 393 95 L 391 95 L 390 96 L 385 96 L 382 101 L 382 103 L 380 106 L 380 108 L 376 115 L 374 114 L 374 112 L 371 107 L 371 105 L 369 102 L 369 100 L 366 95 Z"/>
<path d="M 330 95 L 328 100 L 328 103 L 326 107 L 326 110 L 324 114 L 324 118 L 322 122 L 322 125 L 319 132 L 318 139 L 325 139 L 327 134 L 327 130 L 329 128 L 341 128 L 345 139 L 353 139 L 352 134 L 349 127 L 349 124 L 347 120 L 347 117 L 345 113 L 345 110 L 342 103 L 341 96 L 340 95 Z M 334 106 L 337 108 L 337 111 L 339 116 L 339 120 L 338 121 L 331 121 L 330 120 L 332 115 L 332 112 L 333 111 L 333 107 Z"/>
<path d="M 314 95 L 306 95 L 305 96 L 289 96 L 289 139 L 297 139 L 297 122 L 299 120 L 304 120 L 305 121 L 311 121 L 312 120 L 312 113 L 298 113 L 297 112 L 297 104 L 298 103 L 314 103 Z"/>
<path d="M 250 95 L 249 96 L 248 102 L 244 112 L 242 123 L 239 130 L 239 133 L 238 134 L 237 139 L 245 139 L 247 130 L 249 128 L 260 128 L 262 130 L 264 139 L 272 139 L 271 132 L 268 125 L 268 122 L 267 121 L 267 118 L 263 107 L 263 104 L 261 100 L 261 97 L 260 95 Z M 254 105 L 256 106 L 256 109 L 257 110 L 257 113 L 259 118 L 259 120 L 258 121 L 251 121 L 250 120 L 252 110 L 253 109 L 253 106 Z"/>
<path d="M 1447 85 L 1447 88 L 1448 89 L 1454 88 L 1459 91 L 1463 91 L 1467 88 L 1467 86 L 1465 84 L 1460 85 L 1454 82 L 1451 82 Z"/>
<path d="M 417 81 L 413 79 L 411 79 L 406 90 L 409 92 L 411 92 L 411 91 L 418 83 Z"/>
</g>
<g fill="#EF4444" fill-rule="evenodd">
<path d="M 1295 783 L 1295 843 L 1528 843 L 1528 783 Z"/>
<path d="M 1295 699 L 1295 758 L 1528 758 L 1528 699 Z"/>
<path d="M 665 437 L 652 450 L 644 463 L 636 486 L 637 509 L 640 515 L 645 520 L 652 521 L 660 518 L 675 502 L 677 497 L 690 477 L 692 476 L 693 477 L 692 507 L 694 509 L 694 517 L 703 547 L 707 554 L 712 559 L 719 562 L 728 561 L 733 557 L 741 545 L 745 534 L 750 526 L 751 517 L 746 521 L 744 526 L 734 540 L 726 548 L 724 548 L 718 537 L 718 532 L 715 519 L 715 498 L 714 497 L 714 465 L 715 462 L 714 461 L 713 448 L 701 437 L 695 434 L 687 432 L 676 432 Z M 693 446 L 694 447 L 694 451 L 691 455 L 690 458 L 673 480 L 667 491 L 659 500 L 657 505 L 656 506 L 654 506 L 653 505 L 653 497 L 656 489 L 656 483 L 657 482 L 657 479 L 659 476 L 659 474 L 663 466 L 677 451 L 683 448 L 686 448 L 689 446 Z"/>
<path d="M 892 431 L 878 438 L 868 448 L 859 461 L 850 488 L 850 500 L 852 506 L 852 512 L 859 519 L 863 521 L 873 519 L 882 512 L 893 495 L 897 491 L 902 482 L 906 479 L 908 481 L 908 514 L 918 548 L 921 554 L 924 557 L 936 563 L 940 563 L 944 561 L 950 555 L 951 551 L 955 546 L 958 537 L 962 530 L 965 518 L 962 520 L 959 526 L 945 543 L 939 548 L 934 537 L 930 518 L 930 498 L 929 497 L 929 465 L 930 460 L 929 459 L 928 447 L 926 444 L 922 443 L 916 436 L 910 433 L 901 431 Z M 907 446 L 908 447 L 908 452 L 905 455 L 898 466 L 894 470 L 894 471 L 892 472 L 891 476 L 887 481 L 886 484 L 880 493 L 876 497 L 876 498 L 874 499 L 871 505 L 869 506 L 868 505 L 868 496 L 870 491 L 871 480 L 878 465 L 881 461 L 891 452 L 895 450 L 900 449 L 905 446 Z"/>
<path d="M 592 433 L 579 436 L 568 443 L 547 466 L 534 488 L 532 487 L 531 443 L 527 437 L 515 431 L 512 431 L 510 436 L 504 528 L 505 653 L 509 665 L 516 673 L 523 671 L 526 662 L 529 535 L 548 495 L 578 457 L 594 447 L 598 449 L 597 477 L 571 493 L 549 514 L 546 514 L 541 527 L 541 534 L 547 545 L 563 550 L 578 548 L 599 529 L 603 522 L 612 482 L 623 475 L 634 475 L 631 470 L 616 470 L 612 447 L 608 442 Z M 591 490 L 592 492 L 589 499 L 588 506 L 582 518 L 576 526 L 570 531 L 564 532 L 559 536 L 554 536 L 551 533 L 549 529 L 549 526 L 551 525 L 553 520 L 556 516 L 576 499 L 581 497 L 584 494 Z"/>
<path d="M 837 411 L 823 411 L 816 414 L 804 422 L 789 438 L 785 444 L 777 463 L 775 464 L 771 443 L 769 412 L 766 407 L 758 406 L 755 420 L 752 426 L 749 440 L 748 473 L 749 474 L 753 516 L 756 526 L 756 531 L 759 536 L 763 554 L 766 558 L 774 560 L 778 557 L 778 553 L 780 551 L 779 548 L 781 544 L 780 541 L 781 534 L 779 527 L 780 496 L 783 491 L 783 484 L 787 476 L 787 470 L 789 463 L 792 460 L 797 447 L 803 441 L 803 439 L 816 425 L 830 417 L 835 418 L 837 423 L 837 433 L 841 438 L 846 437 L 851 432 L 851 425 L 849 424 L 844 416 Z"/>
<path d="M 1295 166 L 1295 232 L 1362 255 L 1295 279 L 1295 406 L 1364 429 L 1295 453 L 1295 520 L 1412 467 L 1520 513 L 1296 562 L 1295 641 L 1528 690 L 1528 626 L 1356 602 L 1528 576 L 1528 449 L 1463 430 L 1528 410 L 1528 275 L 1465 256 L 1528 236 L 1528 168 L 1412 219 Z M 1304 342 L 1351 320 L 1360 317 L 1375 309 L 1384 306 L 1388 303 L 1415 292 L 1454 310 L 1459 311 L 1465 315 L 1479 320 L 1488 325 L 1526 341 L 1527 343 L 1464 370 L 1453 376 L 1446 378 L 1415 393 L 1412 393 L 1379 377 L 1368 373 L 1366 371 L 1346 363 L 1344 361 L 1306 345 Z"/>
</g>
</svg>